G04 #@! TF.FileFunction,Other,ECO2*
%FSLAX46Y46*%
G04 Gerber Fmt 4.6, Leading zero omitted, Abs format (unit mm)*
G04 Created by KiCad (PCBNEW 4.0.6) date 08/22/17 11:42:26*
%MOMM*%
%LPD*%
G01*
G04 APERTURE LIST*
%ADD10C,0.100000*%
%ADD11C,0.200000*%
G04 APERTURE END LIST*
D10*
D11*
X106000000Y-95500000D02*
X109950000Y-95500000D01*
X105750000Y-100000000D02*
X110750000Y-100000000D01*
X105750000Y-102750000D02*
X110750000Y-102750000D01*
X106000000Y-107000000D02*
X110050000Y-107000000D01*
X93500000Y-122750000D02*
X93500000Y-117500000D01*
X90250000Y-123200000D02*
X90250000Y-117500000D01*
X87750000Y-123200000D02*
X87750000Y-117500000D01*
X84500000Y-117500000D02*
X84500000Y-122750000D01*
X70000000Y-107000000D02*
X67950000Y-107000000D01*
X70000000Y-95500000D02*
X68100000Y-95500000D01*
X70000000Y-101500000D02*
X67250000Y-101500000D01*
X89000000Y-86500000D02*
X89000000Y-79700000D01*
X89000000Y-102750000D02*
X105750000Y-102750000D01*
X105750000Y-100000000D02*
X89000000Y-100000000D01*
X87750000Y-117500000D02*
X87750000Y-107000000D01*
X90250000Y-107000000D02*
X90250000Y-117500000D01*
X93500000Y-107000000D02*
X93500000Y-117500000D01*
X84500000Y-110500000D02*
X84500000Y-107000000D01*
X89000000Y-107000000D02*
X89000000Y-86500000D01*
X84500000Y-110500000D02*
X84500000Y-117500000D01*
X70000000Y-101500000D02*
X89000000Y-101500000D01*
X70000000Y-107000000D02*
X106000000Y-107000000D01*
X78500000Y-95500000D02*
X78500000Y-107000000D01*
X106000000Y-95500000D02*
X70000000Y-95500000D01*
M02*
