G04 #@! TF.FileFunction,Copper,L2,Bot,Signal*
%FSLAX46Y46*%
G04 Gerber Fmt 4.6, Leading zero omitted, Abs format (unit mm)*
G04 Created by KiCad (PCBNEW 4.0.6) date 08/09/17 10:07:34*
%MOMM*%
%LPD*%
G01*
G04 APERTURE LIST*
%ADD10C,0.100000*%
%ADD11R,1.200000X0.600000*%
%ADD12R,0.600000X1.200000*%
%ADD13R,2.400000X0.750000*%
%ADD14R,1.524000X1.524000*%
%ADD15R,1.500000X1.250000*%
%ADD16R,1.250000X1.500000*%
%ADD17R,2.500000X2.000000*%
%ADD18R,1.800000X1.800000*%
%ADD19C,1.800000*%
%ADD20R,1.200000X1.200000*%
%ADD21C,1.600000*%
%ADD22R,1.600000X1.600000*%
%ADD23O,1.600000X1.600000*%
%ADD24R,1.200000X0.900000*%
%ADD25R,2.123950X0.680000*%
%ADD26R,3.749550X5.699760*%
%ADD27C,1.524000*%
%ADD28C,2.200000*%
%ADD29R,1.700000X1.700000*%
%ADD30C,3.000000*%
%ADD31C,1.200000*%
%ADD32C,1.000000*%
%ADD33C,0.500000*%
%ADD34C,0.400000*%
%ADD35C,1.500000*%
%ADD36C,0.254000*%
G04 APERTURE END LIST*
D10*
D11*
X98250000Y-129700000D03*
X98250000Y-130500000D03*
X98250000Y-131300000D03*
X98250000Y-132100000D03*
X98250000Y-132900000D03*
X98250000Y-133700000D03*
X98250000Y-134500000D03*
X98250000Y-135300000D03*
D12*
X96800000Y-136750000D03*
X96000000Y-136750000D03*
X95200000Y-136750000D03*
X94400000Y-136750000D03*
X93600000Y-136750000D03*
X92800000Y-136750000D03*
X92000000Y-136750000D03*
X91200000Y-136750000D03*
D11*
X89750000Y-135300000D03*
X89750000Y-134500000D03*
X89750000Y-133700000D03*
X89750000Y-132900000D03*
X89750000Y-132100000D03*
X89750000Y-131300000D03*
X89750000Y-130500000D03*
X89750000Y-129700000D03*
D12*
X91200000Y-128250000D03*
X92000000Y-128250000D03*
X92800000Y-128250000D03*
X93600000Y-128250000D03*
X94400000Y-128250000D03*
X95200000Y-128250000D03*
X96000000Y-128250000D03*
X96800000Y-128250000D03*
D13*
X94650000Y-98280000D03*
X98550000Y-98280000D03*
X94650000Y-99550000D03*
X98550000Y-99550000D03*
X94650000Y-100820000D03*
X98550000Y-100820000D03*
X94650000Y-102090000D03*
X98550000Y-102090000D03*
X94650000Y-103360000D03*
X98550000Y-103360000D03*
X94650000Y-104630000D03*
X98550000Y-104630000D03*
X94650000Y-105900000D03*
X98550000Y-105900000D03*
X94650000Y-107170000D03*
X98550000Y-107170000D03*
X94650000Y-108440000D03*
X98550000Y-108440000D03*
X94650000Y-109710000D03*
X98550000Y-109710000D03*
X94650000Y-110980000D03*
X98550000Y-110980000D03*
X94650000Y-112250000D03*
X98550000Y-112250000D03*
X94650000Y-113520000D03*
X98550000Y-113520000D03*
D14*
X113775000Y-76500000D03*
X113025000Y-76500000D03*
X113775000Y-75750000D03*
X113025000Y-75750000D03*
X113775000Y-75000000D03*
X113025000Y-75000000D03*
X113775000Y-74250000D03*
X113025000Y-74250000D03*
X113775000Y-73500000D03*
X113025000Y-73500000D03*
X113775000Y-72750000D03*
X113025000Y-72750000D03*
X109200000Y-75300000D03*
X108450000Y-75300000D03*
X107700000Y-75300000D03*
X106950000Y-75300000D03*
X106200000Y-75300000D03*
X105450000Y-75300000D03*
X109200000Y-74550000D03*
X108450000Y-74550000D03*
X107700000Y-74550000D03*
X106950000Y-74550000D03*
X106200000Y-74550000D03*
X105450000Y-74550000D03*
D15*
X119450000Y-122200000D03*
X116950000Y-122200000D03*
D16*
X100750000Y-128750000D03*
X100750000Y-126250000D03*
X131000000Y-82500000D03*
X131000000Y-85000000D03*
D17*
X134400000Y-88950000D03*
X134400000Y-84950000D03*
D18*
X82950000Y-104650000D03*
D19*
X82950000Y-107190000D03*
D20*
X134700000Y-97500000D03*
D21*
X137200000Y-97500000D03*
D22*
X68250000Y-145500000D03*
D23*
X65750000Y-145500000D03*
D24*
X68000000Y-108000000D03*
X65800000Y-108000000D03*
X68000000Y-110500000D03*
X65800000Y-110500000D03*
X68000000Y-113500000D03*
X65800000Y-113500000D03*
X98600000Y-126250000D03*
X96400000Y-126250000D03*
D22*
X70650000Y-115750000D03*
D23*
X63030000Y-108130000D03*
X70650000Y-113210000D03*
X63030000Y-110670000D03*
X70650000Y-110670000D03*
X63030000Y-113210000D03*
X70650000Y-108130000D03*
X63030000Y-115750000D03*
D22*
X65800000Y-89200000D03*
D23*
X68300000Y-89200000D03*
D25*
X127660451Y-87658549D03*
X127660451Y-85118549D03*
X127660451Y-86388549D03*
X127660451Y-83848549D03*
X127660451Y-82578549D03*
D26*
X118214951Y-85118029D03*
D27*
X122570000Y-75600000D03*
X132730000Y-75600000D03*
D28*
X127650000Y-75600000D03*
X125110000Y-75600000D03*
X130190000Y-75600000D03*
D27*
X111920000Y-140420000D03*
X114460000Y-140420000D03*
X117000000Y-140420000D03*
X119540000Y-140420000D03*
D14*
X119540000Y-125180000D03*
D27*
X117000000Y-125180000D03*
X114460000Y-125180000D03*
X111920000Y-125180000D03*
D29*
X79800000Y-74050000D03*
D23*
X82340000Y-74050000D03*
X84880000Y-74050000D03*
X87420000Y-74050000D03*
X89960000Y-74050000D03*
X92500000Y-74050000D03*
D22*
X134700000Y-112500000D03*
D23*
X137200000Y-112500000D03*
D22*
X68250000Y-130500000D03*
D23*
X65750000Y-130500000D03*
D18*
X139000000Y-82400000D03*
D19*
X139000000Y-84940000D03*
D20*
X110000000Y-161000000D03*
D23*
X110000000Y-158500000D03*
X110000000Y-156000000D03*
D20*
X139700000Y-127500000D03*
D23*
X137200000Y-127500000D03*
X134700000Y-127500000D03*
D20*
X60000000Y-161000000D03*
D23*
X60000000Y-158500000D03*
X60000000Y-156000000D03*
D20*
X75000000Y-161000000D03*
D23*
X75000000Y-158500000D03*
X75000000Y-156000000D03*
D20*
X90000000Y-161000000D03*
D23*
X90000000Y-158500000D03*
X90000000Y-156000000D03*
D20*
X124750000Y-161000000D03*
D23*
X124750000Y-158500000D03*
X124750000Y-156000000D03*
D20*
X140000000Y-161000000D03*
D23*
X140000000Y-158500000D03*
X140000000Y-156000000D03*
D20*
X139700000Y-142500000D03*
D23*
X137200000Y-142500000D03*
X134700000Y-142500000D03*
D21*
X105050000Y-124500000D03*
D23*
X105050000Y-132120000D03*
D21*
X60500000Y-140000000D03*
D23*
X68120000Y-140000000D03*
D21*
X60500000Y-136250000D03*
D23*
X68120000Y-136250000D03*
D21*
X60800000Y-97600000D03*
D23*
X68420000Y-97600000D03*
D21*
X142200000Y-105000000D03*
D23*
X134580000Y-105000000D03*
D21*
X142200000Y-119000000D03*
D23*
X134580000Y-119000000D03*
D21*
X144800000Y-91950000D03*
D23*
X137180000Y-91950000D03*
D21*
X90550000Y-110400000D03*
D23*
X82930000Y-110400000D03*
D21*
X92300000Y-96100000D03*
X92300000Y-109750000D03*
D30*
X113500000Y-94300000D03*
X113500000Y-85200000D03*
D21*
X105050000Y-116800000D03*
X92000000Y-116800000D03*
D31*
X101250000Y-100800000D03*
D21*
X101250000Y-115150000D03*
X92250000Y-123850000D03*
X95700000Y-123850000D03*
D32*
X125110000Y-75600000D02*
X123460000Y-73950000D01*
X123460000Y-73950000D02*
X114075000Y-73950000D01*
X114075000Y-73950000D02*
X113775000Y-74250000D01*
X113775000Y-74250000D02*
X113775000Y-75000000D01*
X119450000Y-122200000D02*
X119450000Y-92450000D01*
X119450000Y-92450000D02*
X116500000Y-89500000D01*
X126000000Y-87658549D02*
X124158549Y-89500000D01*
X126000000Y-87658549D02*
X127660451Y-87658549D01*
X124158549Y-89500000D02*
X116000000Y-89500000D01*
X109200000Y-86700000D02*
X109200000Y-80550000D01*
X116000000Y-89500000D02*
X112000000Y-89500000D01*
X112000000Y-89500000D02*
X109200000Y-86700000D01*
X137200000Y-142500000D02*
X134700000Y-145000000D01*
X113800000Y-145000000D02*
X111920000Y-143120000D01*
X134700000Y-145000000D02*
X113800000Y-145000000D01*
X137200000Y-143400000D02*
X142000000Y-148200000D01*
X142000000Y-156500000D02*
X140000000Y-158500000D01*
X142000000Y-148200000D02*
X142000000Y-156500000D01*
X58000000Y-149500000D02*
X58000000Y-148500000D01*
X58000000Y-148500000D02*
X61000000Y-145500000D01*
X58000000Y-157500000D02*
X58000000Y-149500000D01*
X65750000Y-145500000D02*
X61000000Y-145500000D01*
X59000000Y-158500000D02*
X60000000Y-158500000D01*
X59000000Y-158500000D02*
X58000000Y-157500000D01*
D33*
X84880000Y-74050000D02*
X84880000Y-79680000D01*
X86400000Y-81200000D02*
X86400000Y-81300000D01*
X84880000Y-79680000D02*
X86400000Y-81200000D01*
D32*
X94650000Y-109710000D02*
X92340000Y-109710000D01*
X92300000Y-84300000D02*
X95400000Y-81200000D01*
X92300000Y-96100000D02*
X92300000Y-84300000D01*
X92340000Y-109710000D02*
X92300000Y-109750000D01*
X98550000Y-112250000D02*
X101450000Y-112250000D01*
X101450000Y-112250000D02*
X102900000Y-110800000D01*
X98550000Y-108440000D02*
X100810000Y-108440000D01*
X100810000Y-108440000D02*
X102900000Y-106350000D01*
X100750000Y-126250000D02*
X101700000Y-126250000D01*
X102900000Y-84400000D02*
X106100000Y-81200000D01*
X102900000Y-125050000D02*
X102900000Y-110800000D01*
X102900000Y-110800000D02*
X102900000Y-106350000D01*
X102900000Y-106350000D02*
X102900000Y-84400000D01*
X101700000Y-126250000D02*
X102900000Y-125050000D01*
X109200000Y-75300000D02*
X109200000Y-80550000D01*
X109200000Y-80550000D02*
X108550000Y-81200000D01*
X82950000Y-85100000D02*
X82950000Y-84750000D01*
X82950000Y-84750000D02*
X86400000Y-81300000D01*
X86400000Y-81300000D02*
X86500000Y-81200000D01*
X82950000Y-90600000D02*
X82950000Y-85100000D01*
X82950000Y-104650000D02*
X82950000Y-90600000D01*
X82950000Y-90600000D02*
X82950000Y-90550000D01*
X93900000Y-81200000D02*
X86500000Y-81200000D01*
X103850000Y-81200000D02*
X95400000Y-81200000D01*
X95400000Y-81200000D02*
X93900000Y-81200000D01*
X108550000Y-81200000D02*
X106100000Y-81200000D01*
X106100000Y-81200000D02*
X103850000Y-81200000D01*
X86500000Y-81200000D02*
X84200000Y-81200000D01*
X84200000Y-81200000D02*
X70250000Y-81200000D01*
X70250000Y-81200000D02*
X65800000Y-85650000D01*
X65800000Y-85650000D02*
X65800000Y-89200000D01*
X107700000Y-75300000D02*
X108450000Y-75300000D01*
X101300000Y-125700000D02*
X100750000Y-126250000D01*
X137200000Y-97500000D02*
X137200000Y-91970000D01*
X137200000Y-91970000D02*
X137180000Y-91950000D01*
X137180000Y-91950000D02*
X137180000Y-89880000D01*
X134400000Y-88950000D02*
X136250000Y-88950000D01*
X136250000Y-88950000D02*
X137180000Y-89880000D01*
X137180000Y-97480000D02*
X137200000Y-97500000D01*
D33*
X91200000Y-136750000D02*
X91200000Y-142850000D01*
X65750000Y-146350000D02*
X65750000Y-145500000D01*
X66750000Y-147350000D02*
X65750000Y-146350000D01*
X86700000Y-147350000D02*
X66750000Y-147350000D01*
X91200000Y-142850000D02*
X86700000Y-147350000D01*
D32*
X119450000Y-122200000D02*
X119450000Y-125090000D01*
X119450000Y-125090000D02*
X119540000Y-125180000D01*
X127660451Y-87658549D02*
X133108549Y-87658549D01*
X133108549Y-87658549D02*
X134400000Y-88950000D01*
X111920000Y-140420000D02*
X111920000Y-143120000D01*
X137200000Y-142500000D02*
X137200000Y-143400000D01*
X65800000Y-89200000D02*
X65800000Y-108000000D01*
X65800000Y-113500000D02*
X65800000Y-130450000D01*
X65800000Y-130450000D02*
X65750000Y-130500000D01*
X65750000Y-130500000D02*
X65750000Y-145500000D01*
X137200000Y-97500000D02*
X137200000Y-112500000D01*
X137200000Y-127500000D02*
X137200000Y-112500000D01*
D33*
X91200000Y-136750000D02*
X91200000Y-136800000D01*
D32*
X60000000Y-158500000D02*
X75000000Y-158500000D01*
X75000000Y-158500000D02*
X90000000Y-158500000D01*
X90000000Y-158500000D02*
X110000000Y-158500000D01*
X110000000Y-158500000D02*
X124750000Y-158500000D01*
X124750000Y-158500000D02*
X140000000Y-158500000D01*
X137200000Y-127500000D02*
X137200000Y-142500000D01*
D33*
X96800000Y-128250000D02*
X98000000Y-128250000D01*
X98600000Y-127650000D02*
X98600000Y-126250000D01*
X98000000Y-128250000D02*
X98600000Y-127650000D01*
X100750000Y-126250000D02*
X98600000Y-126250000D01*
D32*
X65800000Y-108000000D02*
X65800000Y-110500000D01*
X65800000Y-110500000D02*
X65800000Y-113500000D01*
X118214951Y-85118029D02*
X113581971Y-85118029D01*
X113500000Y-123600000D02*
X111920000Y-125180000D01*
X113500000Y-94300000D02*
X113500000Y-123600000D01*
X113581971Y-85118029D02*
X113500000Y-85200000D01*
X127660451Y-85118549D02*
X118215471Y-85118549D01*
X118215471Y-85118549D02*
X118214951Y-85118029D01*
X144200000Y-157500000D02*
X144200000Y-147000000D01*
X144200000Y-157500000D02*
X140700000Y-161000000D01*
X140000000Y-161000000D02*
X140700000Y-161000000D01*
X144200000Y-147000000D02*
X139700000Y-142500000D01*
X58500000Y-161000000D02*
X56000000Y-158500000D01*
X56000000Y-144500000D02*
X60500000Y-140000000D01*
X56000000Y-158500000D02*
X56000000Y-144500000D01*
X94650000Y-108440000D02*
X93140000Y-108440000D01*
X88700000Y-109600000D02*
X88700000Y-110600000D01*
X90050000Y-108250000D02*
X88700000Y-109600000D01*
X92950000Y-108250000D02*
X90050000Y-108250000D01*
X93140000Y-108440000D02*
X92950000Y-108250000D01*
X105050000Y-124500000D02*
X105050000Y-116800000D01*
X105050000Y-124500000D02*
X105050000Y-127800000D01*
X105050000Y-127800000D02*
X104100000Y-128750000D01*
X118214951Y-85118029D02*
X116950000Y-86382980D01*
X88700000Y-110600000D02*
X88700000Y-115350000D01*
X90150000Y-116800000D02*
X92000000Y-116800000D01*
X88700000Y-115350000D02*
X90150000Y-116800000D01*
X91500000Y-112250000D02*
X90050000Y-112250000D01*
X90050000Y-112250000D02*
X88700000Y-110900000D01*
X94650000Y-112250000D02*
X91500000Y-112250000D01*
D33*
X88700000Y-110900000D02*
X88700000Y-110600000D01*
D32*
X118215471Y-85118549D02*
X118214951Y-85118029D01*
X139000000Y-84940000D02*
X140690000Y-84940000D01*
X142200000Y-86450000D02*
X142200000Y-90100000D01*
X140690000Y-84940000D02*
X142200000Y-86450000D01*
X134400000Y-84950000D02*
X138990000Y-84950000D01*
X142200000Y-90100000D02*
X142200000Y-105000000D01*
X142200000Y-88160000D02*
X142200000Y-90100000D01*
D33*
X89750000Y-135300000D02*
X91950000Y-135300000D01*
X91950000Y-135300000D02*
X97550000Y-129700000D01*
X97550000Y-129700000D02*
X98250000Y-129700000D01*
D32*
X116950000Y-122200000D02*
X117000000Y-122250000D01*
X117000000Y-122250000D02*
X117000000Y-125180000D01*
X118215471Y-85118549D02*
X118214951Y-85118029D01*
X127660451Y-85118549D02*
X130881451Y-85118549D01*
X130881451Y-85118549D02*
X131050000Y-84950000D01*
X131050000Y-84950000D02*
X134400000Y-84950000D01*
X117000000Y-125180000D02*
X117000000Y-128200000D01*
X116450000Y-128750000D02*
X114050000Y-128750000D01*
X117000000Y-128200000D02*
X116450000Y-128750000D01*
X111920000Y-125180000D02*
X111920000Y-128029998D01*
X111920000Y-128029998D02*
X111199998Y-128750000D01*
X111920000Y-125180000D02*
X111920000Y-125480000D01*
X100750000Y-128750000D02*
X104100000Y-128750000D01*
X104100000Y-128750000D02*
X108650000Y-128750000D01*
X108650000Y-128750000D02*
X111199998Y-128750000D01*
X111199998Y-128750000D02*
X114050000Y-128750000D01*
X117000000Y-125800000D02*
X117000000Y-125180000D01*
X117000000Y-125180000D02*
X117000000Y-125800000D01*
X60800000Y-97600000D02*
X60800000Y-105900000D01*
X60800000Y-105900000D02*
X63030000Y-108130000D01*
X60500000Y-136250000D02*
X60500000Y-115740000D01*
X60500000Y-115740000D02*
X63030000Y-113210000D01*
X60500000Y-136250000D02*
X60500000Y-140000000D01*
X142200000Y-105000000D02*
X142200000Y-119000000D01*
X142200000Y-119000000D02*
X139700000Y-121500000D01*
X139700000Y-121500000D02*
X139700000Y-127500000D01*
X60000000Y-161000000D02*
X58500000Y-161000000D01*
X63030000Y-108130000D02*
X63030000Y-110670000D01*
X63030000Y-110670000D02*
X63030000Y-113210000D01*
X90000000Y-161000000D02*
X110000000Y-161000000D01*
X110000000Y-161000000D02*
X124750000Y-161000000D01*
X124750000Y-161000000D02*
X140000000Y-161000000D01*
X60000000Y-161000000D02*
X75000000Y-161000000D01*
X75000000Y-161000000D02*
X90000000Y-161000000D01*
X139700000Y-127500000D02*
X139700000Y-142500000D01*
X100750000Y-128750000D02*
X102000000Y-128750000D01*
D33*
X98250000Y-129700000D02*
X99800000Y-129700000D01*
X99800000Y-129700000D02*
X100750000Y-128750000D01*
X98250000Y-132900000D02*
X97400000Y-132900000D01*
D34*
X97550000Y-129700000D02*
X98250000Y-129700000D01*
X97000000Y-130250000D02*
X97550000Y-129700000D01*
D33*
X97000000Y-132500000D02*
X97000000Y-130250000D01*
X97400000Y-132900000D02*
X97000000Y-132500000D01*
D32*
X127660451Y-82578549D02*
X127660451Y-75610451D01*
X127660451Y-75610451D02*
X127650000Y-75600000D01*
X127660451Y-83848549D02*
X127660451Y-82578549D01*
X127660451Y-82578549D02*
X127739000Y-82500000D01*
X127739000Y-82500000D02*
X131000000Y-82500000D01*
D33*
X82950000Y-107190000D02*
X82950000Y-110380000D01*
X82950000Y-110380000D02*
X82930000Y-110400000D01*
X100750000Y-130500000D02*
X101900000Y-130500000D01*
X121200000Y-130000000D02*
X132200000Y-119000000D01*
X102400000Y-130000000D02*
X121200000Y-130000000D01*
X101900000Y-130500000D02*
X102400000Y-130000000D01*
X98250000Y-130500000D02*
X100750000Y-130500000D01*
X132200000Y-107380000D02*
X134700000Y-104880000D01*
X132200000Y-119000000D02*
X132200000Y-107380000D01*
X134700000Y-97500000D02*
X134700000Y-104880000D01*
X89750000Y-134500000D02*
X73620000Y-134500000D01*
X73620000Y-134500000D02*
X68120000Y-140000000D01*
X68250000Y-145500000D02*
X68250000Y-140130000D01*
X68250000Y-140130000D02*
X68120000Y-140000000D01*
X122400000Y-130800000D02*
X122780000Y-130800000D01*
X122780000Y-130800000D02*
X134580000Y-119000000D01*
X101200000Y-131300000D02*
X102100000Y-131300000D01*
X102600000Y-130800000D02*
X122400000Y-130800000D01*
X102100000Y-131300000D02*
X102600000Y-130800000D01*
X101000000Y-131300000D02*
X101200000Y-131300000D01*
X98250000Y-131300000D02*
X101000000Y-131300000D01*
X134700000Y-112500000D02*
X134700000Y-118880000D01*
X134700000Y-118880000D02*
X134580000Y-119000000D01*
X89750000Y-133700000D02*
X69800000Y-133700000D01*
X69800000Y-133700000D02*
X68250000Y-135250000D01*
X68250000Y-130500000D02*
X68250000Y-135250000D01*
X68250000Y-135250000D02*
X68250000Y-136120000D01*
X68250000Y-136120000D02*
X68120000Y-136250000D01*
X98250000Y-133700000D02*
X132250000Y-133700000D01*
X134700000Y-131250000D02*
X134700000Y-127500000D01*
X132250000Y-133700000D02*
X134700000Y-131250000D01*
X131000000Y-134500000D02*
X98250000Y-134500000D01*
X133950000Y-136250000D02*
X134700000Y-137000000D01*
X134700000Y-137000000D02*
X134700000Y-137250000D01*
X131450000Y-134500000D02*
X132200000Y-134500000D01*
X134700000Y-138000000D02*
X134700000Y-142500000D01*
X134700000Y-137250000D02*
X134700000Y-138000000D01*
X132200000Y-134500000D02*
X133950000Y-136250000D01*
X130950000Y-134500000D02*
X131000000Y-134500000D01*
X131000000Y-134500000D02*
X131450000Y-134500000D01*
X130000000Y-150000000D02*
X134000000Y-150000000D01*
X134000000Y-150000000D02*
X140000000Y-156000000D01*
X122500000Y-150000000D02*
X130000000Y-150000000D01*
X96000000Y-140000000D02*
X96000000Y-147250000D01*
X98750000Y-150000000D02*
X122500000Y-150000000D01*
X96000000Y-147250000D02*
X98750000Y-150000000D01*
X96000000Y-136750000D02*
X96000000Y-140000000D01*
X119000000Y-154500000D02*
X123250000Y-154500000D01*
X123250000Y-154500000D02*
X124750000Y-156000000D01*
X95200000Y-150750000D02*
X95200000Y-151200000D01*
X98500000Y-154500000D02*
X119000000Y-154500000D01*
X119000000Y-154500000D02*
X118750000Y-154500000D01*
X95200000Y-151200000D02*
X98500000Y-154500000D01*
X95200000Y-143500000D02*
X95200000Y-150750000D01*
X95200000Y-136750000D02*
X95200000Y-143500000D01*
X94400000Y-154900000D02*
X95500000Y-156000000D01*
X94400000Y-136750000D02*
X94400000Y-154900000D01*
X95500000Y-156000000D02*
X110000000Y-156000000D01*
X89500000Y-154500000D02*
X76500000Y-154500000D01*
X92800000Y-151200000D02*
X89500000Y-154500000D01*
X92800000Y-136750000D02*
X92800000Y-151200000D01*
X76500000Y-154500000D02*
X75000000Y-156000000D01*
X66000000Y-150000000D02*
X60000000Y-156000000D01*
X92000000Y-136750000D02*
X92000000Y-147500000D01*
X92000000Y-147500000D02*
X89500000Y-150000000D01*
X89500000Y-150000000D02*
X66000000Y-150000000D01*
X93600000Y-154900000D02*
X92500000Y-156000000D01*
X93600000Y-136750000D02*
X93600000Y-154900000D01*
X92500000Y-156000000D02*
X90000000Y-156000000D01*
X89750000Y-129700000D02*
X88950000Y-129700000D01*
D35*
X86950000Y-127700000D02*
X86950000Y-125650000D01*
D33*
X88950000Y-129700000D02*
X86950000Y-127700000D01*
X89750000Y-130500000D02*
X88100000Y-130500000D01*
D35*
X85250000Y-126750000D02*
X85250000Y-125000000D01*
D33*
X85250000Y-127650000D02*
X85250000Y-126750000D01*
X88100000Y-130500000D02*
X85250000Y-127650000D01*
X100850000Y-132100000D02*
X100850000Y-132500000D01*
D35*
X100850000Y-132500000D02*
X102200000Y-132500000D01*
D33*
X98250000Y-132100000D02*
X100850000Y-132100000D01*
X100850000Y-132100000D02*
X105030000Y-132100000D01*
X105030000Y-132100000D02*
X105050000Y-132120000D01*
X98270000Y-132120000D02*
X98250000Y-132100000D01*
X92000000Y-128250000D02*
X92000000Y-127350000D01*
D35*
X91050000Y-126400000D02*
X89600000Y-124950000D01*
D33*
X92000000Y-127350000D02*
X91050000Y-126400000D01*
X81875000Y-116325000D02*
X83550000Y-118000000D01*
X83550000Y-120600000D02*
X91200000Y-128250000D01*
X83550000Y-118000000D02*
X83550000Y-120600000D01*
X68420000Y-97600000D02*
X68420000Y-102870000D01*
X68420000Y-102870000D02*
X81875000Y-116325000D01*
X68300000Y-89200000D02*
X68300000Y-97480000D01*
X68300000Y-97480000D02*
X68420000Y-97600000D01*
X72200000Y-113210000D02*
X77000000Y-118010000D01*
X77000000Y-118010000D02*
X77000000Y-126400000D01*
X83700000Y-132900000D02*
X83500000Y-132900000D01*
X88000000Y-132900000D02*
X87400000Y-132900000D01*
X89750000Y-132900000D02*
X88000000Y-132900000D01*
X72200000Y-113210000D02*
X70650000Y-113210000D01*
X83700000Y-132900000D02*
X87400000Y-132900000D01*
X83500000Y-132900000D02*
X77000000Y-126400000D01*
X68000000Y-113500000D02*
X70360000Y-113500000D01*
D34*
X70360000Y-113500000D02*
X70650000Y-113210000D01*
D33*
X72200000Y-110670000D02*
X79400000Y-117870000D01*
X79400000Y-117870000D02*
X79400000Y-126000000D01*
X70650000Y-110670000D02*
X72200000Y-110670000D01*
X79400000Y-126000000D02*
X85500000Y-132100000D01*
X85500000Y-132100000D02*
X89750000Y-132100000D01*
X68000000Y-110500000D02*
X70480000Y-110500000D01*
D34*
X70480000Y-110500000D02*
X70650000Y-110670000D01*
D33*
X72200000Y-108130000D02*
X81800000Y-117730000D01*
X81800000Y-117730000D02*
X81800000Y-125600000D01*
X88500000Y-131300000D02*
X87500000Y-131300000D01*
X87500000Y-131300000D02*
X81800000Y-125600000D01*
X89750000Y-131300000D02*
X88500000Y-131300000D01*
X81800000Y-125600000D02*
X81800000Y-123800000D01*
X70650000Y-108130000D02*
X72200000Y-108130000D01*
X81800000Y-123800000D02*
X81800000Y-124600000D01*
X68000000Y-108000000D02*
X70520000Y-108000000D01*
D34*
X70520000Y-108000000D02*
X70650000Y-108130000D01*
D33*
X101250000Y-115150000D02*
X101250000Y-115800000D01*
X94400000Y-122650000D02*
X94400000Y-123950000D01*
X101250000Y-115800000D02*
X94400000Y-122650000D01*
X94400000Y-126050000D02*
X94400000Y-123950000D01*
X94400000Y-128250000D02*
X94400000Y-126050000D01*
X101250000Y-100800000D02*
X98570000Y-100800000D01*
X98570000Y-100800000D02*
X98550000Y-100820000D01*
X95200000Y-128250000D02*
X95200000Y-124350000D01*
X87600000Y-106250000D02*
X91760000Y-102090000D01*
X87600000Y-119650000D02*
X87600000Y-106250000D01*
X91760000Y-102090000D02*
X94650000Y-102090000D01*
X91800000Y-123850000D02*
X87600000Y-119650000D01*
X92250000Y-123850000D02*
X91800000Y-123850000D01*
X95200000Y-124350000D02*
X95700000Y-123850000D01*
X92800000Y-128250000D02*
X92800000Y-126400000D01*
X86800000Y-102600000D02*
X88550000Y-100850000D01*
X86800000Y-120400000D02*
X86800000Y-102600000D01*
X92800000Y-126400000D02*
X86800000Y-120400000D01*
X88550000Y-100850000D02*
X91120000Y-98280000D01*
X91120000Y-98280000D02*
X94650000Y-98280000D01*
X93600000Y-128250000D02*
X93600000Y-114570000D01*
X93600000Y-114570000D02*
X94650000Y-113520000D01*
X96000000Y-128250000D02*
X96000000Y-126650000D01*
X96000000Y-126650000D02*
X96400000Y-126250000D01*
X117000000Y-140420000D02*
X117000000Y-138400000D01*
X115350000Y-136750000D02*
X96800000Y-136750000D01*
X117000000Y-138400000D02*
X115350000Y-136750000D01*
X98250000Y-135300000D02*
X116900000Y-135300000D01*
X119540000Y-137940000D02*
X119540000Y-140420000D01*
X116900000Y-135300000D02*
X119540000Y-137940000D01*
D32*
X139000000Y-82400000D02*
X140850000Y-82400000D01*
X144800000Y-86350000D02*
X144800000Y-91950000D01*
X140850000Y-82400000D02*
X144800000Y-86350000D01*
D33*
X90550000Y-110400000D02*
X91130000Y-110980000D01*
X91130000Y-110980000D02*
X94650000Y-110980000D01*
X90580000Y-110430000D02*
X90550000Y-110400000D01*
X94650000Y-110980000D02*
X94570000Y-111060000D01*
D36*
G36*
X124573000Y-87480417D02*
X124180417Y-87873000D01*
X116427000Y-87873000D01*
X116427000Y-82427000D01*
X124573000Y-82427000D01*
X124573000Y-87480417D01*
X124573000Y-87480417D01*
G37*
X124573000Y-87480417D02*
X124180417Y-87873000D01*
X116427000Y-87873000D01*
X116427000Y-82427000D01*
X124573000Y-82427000D01*
X124573000Y-87480417D01*
M02*
