M48
;DRILL file {KiCad 4.0.6} date 06/21/17 19:22:13
;FORMAT={-:-/ absolute / metric / decimal}
FMAT,2
METRIC,TZ
T1C0.800
T2C0.813
T3C0.900
T4C1.000
T5C1.016
%
G90
G05
M71
T1
X55.5Y-159.
X55.5Y-161.5
X55.5Y-164.
X60.5Y-136.25
X60.5Y-140.
X60.8Y-97.6
X63.03Y-108.13
X63.03Y-110.67
X63.03Y-113.21
X63.03Y-115.75
X65.75Y-130.5
X65.75Y-145.5
X65.8Y-89.2
X68.12Y-136.25
X68.12Y-140.
X68.25Y-130.5
X68.25Y-145.5
X68.3Y-89.2
X68.42Y-97.6
X70.5Y-159.
X70.5Y-161.5
X70.5Y-164.
X70.65Y-108.13
X70.65Y-110.67
X70.65Y-113.21
X70.65Y-115.75
X82.34Y-74.05
X82.93Y-110.4
X84.88Y-74.05
X85.5Y-159.
X85.5Y-161.5
X85.5Y-164.
X87.42Y-74.05
X89.96Y-74.05
X90.55Y-110.4
X92.Y-116.8
X92.25Y-123.85
X92.3Y-96.1
X92.3Y-109.75
X92.5Y-74.05
X95.7Y-123.85
X101.25Y-100.8
X101.25Y-115.15
X105.05Y-116.8
X105.05Y-124.5
X105.05Y-132.12
X105.45Y-74.55
X105.45Y-75.3
X105.5Y-159.
X105.5Y-161.5
X105.5Y-164.
X106.2Y-74.55
X106.2Y-75.3
X106.95Y-74.55
X106.95Y-75.3
X107.7Y-74.55
X107.7Y-75.3
X108.45Y-74.55
X108.45Y-75.3
X109.2Y-74.55
X109.2Y-75.3
X113.025Y-72.75
X113.025Y-73.5
X113.025Y-74.25
X113.025Y-75.
X113.025Y-75.75
X113.025Y-76.5
X113.775Y-72.75
X113.775Y-73.5
X113.775Y-74.25
X113.775Y-75.
X113.775Y-75.75
X113.775Y-76.5
X120.25Y-159.
X120.25Y-161.5
X120.25Y-164.
X134.58Y-105.
X134.58Y-119.
X134.7Y-97.5
X134.7Y-112.5
X134.7Y-127.5
X134.7Y-142.5
X135.5Y-159.
X135.5Y-161.5
X135.5Y-164.
X137.18Y-91.95
X137.2Y-97.5
X137.2Y-112.5
X137.2Y-127.5
X137.2Y-142.5
X139.7Y-127.5
X139.7Y-142.5
X142.2Y-105.
X142.2Y-119.
X144.8Y-91.95
T2
X111.92Y-125.18
X111.92Y-140.42
X114.46Y-125.18
X114.46Y-140.42
X117.Y-125.18
X117.Y-140.42
X119.54Y-125.18
X119.54Y-140.42
T3
X82.95Y-104.65
X82.95Y-107.19
X139.Y-82.4
X139.Y-84.94
T4
X79.8Y-74.05
T5
X122.57Y-75.6
X125.11Y-75.6
X127.65Y-75.6
X130.19Y-75.6
X132.73Y-75.6
T0
M30
