G04 #@! TF.FileFunction,Copper,L1,Top,Signal*
%FSLAX46Y46*%
G04 Gerber Fmt 4.6, Leading zero omitted, Abs format (unit mm)*
G04 Created by KiCad (PCBNEW 4.0.6) date 06/21/17 19:22:11*
%MOMM*%
%LPD*%
G01*
G04 APERTURE LIST*
%ADD10C,0.100000*%
%ADD11R,1.524000X1.524000*%
%ADD12R,1.800000X1.800000*%
%ADD13C,1.800000*%
%ADD14R,1.200000X1.200000*%
%ADD15C,1.200000*%
%ADD16O,1.600000X1.600000*%
%ADD17R,1.600000X1.600000*%
%ADD18C,1.524000*%
%ADD19C,2.200000*%
%ADD20R,1.700000X1.700000*%
%ADD21C,1.600000*%
%ADD22C,0.500000*%
G04 APERTURE END LIST*
D10*
D11*
X113775000Y-76500000D03*
X113025000Y-76500000D03*
X113775000Y-75750000D03*
X113025000Y-75750000D03*
X113775000Y-75000000D03*
X113025000Y-75000000D03*
X113775000Y-74250000D03*
X113025000Y-74250000D03*
X113775000Y-73500000D03*
X113025000Y-73500000D03*
X113775000Y-72750000D03*
X113025000Y-72750000D03*
X109200000Y-75300000D03*
X108450000Y-75300000D03*
X107700000Y-75300000D03*
X106950000Y-75300000D03*
X106200000Y-75300000D03*
X105450000Y-75300000D03*
X109200000Y-74550000D03*
X108450000Y-74550000D03*
X107700000Y-74550000D03*
X106950000Y-74550000D03*
X106200000Y-74550000D03*
X105450000Y-74550000D03*
D12*
X82950000Y-104650000D03*
D13*
X82950000Y-107190000D03*
D14*
X134700000Y-97500000D03*
D15*
X137200000Y-97500000D03*
D14*
X68250000Y-145500000D03*
D16*
X65750000Y-145500000D03*
D17*
X70650000Y-115750000D03*
D16*
X63030000Y-108130000D03*
X70650000Y-113210000D03*
X63030000Y-110670000D03*
X70650000Y-110670000D03*
X63030000Y-113210000D03*
X70650000Y-108130000D03*
X63030000Y-115750000D03*
D14*
X65800000Y-89200000D03*
D16*
X68300000Y-89200000D03*
D18*
X122570000Y-75600000D03*
X132730000Y-75600000D03*
D19*
X127650000Y-75600000D03*
X125110000Y-75600000D03*
X130190000Y-75600000D03*
D18*
X111920000Y-140420000D03*
X114460000Y-140420000D03*
X117000000Y-140420000D03*
X119540000Y-140420000D03*
D11*
X119540000Y-125180000D03*
D18*
X117000000Y-125180000D03*
X114460000Y-125180000D03*
X111920000Y-125180000D03*
D20*
X79800000Y-74050000D03*
D16*
X82340000Y-74050000D03*
X84880000Y-74050000D03*
X87420000Y-74050000D03*
X89960000Y-74050000D03*
X92500000Y-74050000D03*
D14*
X134700000Y-112500000D03*
D16*
X137200000Y-112500000D03*
D14*
X68250000Y-130500000D03*
D16*
X65750000Y-130500000D03*
D12*
X139000000Y-82400000D03*
D13*
X139000000Y-84940000D03*
D14*
X105500000Y-164000000D03*
D16*
X105500000Y-161500000D03*
X105500000Y-159000000D03*
D14*
X139700000Y-127500000D03*
D16*
X137200000Y-127500000D03*
X134700000Y-127500000D03*
D14*
X55500000Y-164000000D03*
D16*
X55500000Y-161500000D03*
X55500000Y-159000000D03*
D14*
X70500000Y-164000000D03*
D16*
X70500000Y-161500000D03*
X70500000Y-159000000D03*
D14*
X85500000Y-164000000D03*
D16*
X85500000Y-161500000D03*
X85500000Y-159000000D03*
D14*
X120250000Y-164000000D03*
D16*
X120250000Y-161500000D03*
X120250000Y-159000000D03*
D14*
X135500000Y-164000000D03*
D16*
X135500000Y-161500000D03*
X135500000Y-159000000D03*
D14*
X139700000Y-142500000D03*
D16*
X137200000Y-142500000D03*
X134700000Y-142500000D03*
D21*
X105050000Y-124500000D03*
D16*
X105050000Y-132120000D03*
D21*
X60500000Y-140000000D03*
D16*
X68120000Y-140000000D03*
D21*
X60500000Y-136250000D03*
D16*
X68120000Y-136250000D03*
D21*
X60800000Y-97600000D03*
D16*
X68420000Y-97600000D03*
D21*
X142200000Y-105000000D03*
D16*
X134580000Y-105000000D03*
D21*
X142200000Y-119000000D03*
D16*
X134580000Y-119000000D03*
D21*
X144800000Y-91950000D03*
D16*
X137180000Y-91950000D03*
D21*
X90550000Y-110400000D03*
D16*
X82930000Y-110400000D03*
D21*
X92300000Y-96100000D03*
X92300000Y-109750000D03*
X105050000Y-116800000D03*
X92000000Y-116800000D03*
D15*
X101250000Y-100800000D03*
D21*
X101250000Y-115150000D03*
X92250000Y-123850000D03*
X95700000Y-123850000D03*
D22*
X92300000Y-109750000D02*
X92300000Y-96100000D01*
X92000000Y-116800000D02*
X105050000Y-116800000D01*
X101250000Y-115150000D02*
X101250000Y-100800000D01*
X95700000Y-123850000D02*
X92250000Y-123850000D01*
M02*
