M48
;DRILL file {KiCad 4.0.6} date 09/01/17 11:34:38
;FORMAT={-:-/ absolute / metric / decimal}
FMAT,2
METRIC,TZ
T1C0.800
T2C0.813
T3C0.900
T4C1.000
T5C1.016
T6C3.200
%
G90
G05
M71
T1
X27.925Y-79.35
X27.925Y-80.1
X28.675Y-79.35
X28.675Y-80.1
X29.425Y-79.35
X29.425Y-80.1
X29.725Y-83.925
X29.725Y-84.675
X29.725Y-85.425
X29.725Y-86.175
X29.725Y-86.925
X29.725Y-87.675
X30.175Y-79.35
X30.175Y-80.1
X30.475Y-83.925
X30.475Y-84.675
X30.475Y-85.425
X30.475Y-86.175
X30.475Y-86.925
X30.475Y-87.675
X30.925Y-79.35
X30.925Y-80.1
X31.675Y-79.35
X31.675Y-80.1
X31.88Y-95.98
X31.88Y-98.52
X31.88Y-101.06
X31.88Y-103.6
X31.9Y-107.7
X38.Y-117.
X38.Y-119.5
X38.Y-122.
X39.5Y-95.98
X39.5Y-98.52
X39.5Y-101.06
X39.5Y-103.6
X39.52Y-107.7
X52.8Y-106.
X52.8Y-108.5
X53.Y-117.
X53.Y-119.5
X53.Y-122.
X66.2Y-94.
X68.Y-117.
X68.Y-119.5
X68.Y-122.
X71.2Y-96.
X74.8Y-67.6
X74.8Y-87.6
X75.4Y-93.78
X76.6Y-68.4
X76.6Y-73.6
X79.1Y-65.88
X79.1Y-73.5
X82.1Y-81.5
X82.4Y-96.
X83.Y-117.
X83.Y-119.5
X83.Y-122.
X85.Y-96.6
X85.Y-104.22
X89.7Y-94.5
X89.7Y-108.
X90.7Y-81.5
X93.4Y-102.6
X98.Y-117.
X98.Y-119.5
X98.Y-122.
X100.18Y-68.6
X103.4Y-102.6
X107.2Y-88.4
X107.2Y-103.4
X107.8Y-68.6
X109.58Y-82.9
X109.58Y-97.9
X109.7Y-88.4
X109.7Y-103.4
X112.2Y-88.4
X112.2Y-103.4
X113.Y-117.
X113.Y-119.5
X113.Y-122.
X114.7Y-88.4
X114.7Y-103.4
X117.2Y-82.9
X117.2Y-88.4
X117.2Y-97.9
X117.2Y-103.4
T2
X82.07Y-73.58
X82.07Y-88.82
X84.61Y-73.58
X84.61Y-88.82
X87.15Y-73.58
X87.15Y-88.82
X89.69Y-73.58
X89.69Y-88.82
T3
X69.8Y-64.5
X72.34Y-64.5
X108.7Y-62.46
X108.7Y-65.
T4
X123.4Y-63.2
X123.4Y-65.74
X123.4Y-68.28
X123.4Y-70.82
X123.4Y-73.36
X123.4Y-75.9
T5
X31.4Y-62.42
X31.4Y-64.96
X31.4Y-67.5
X31.4Y-70.04
X31.4Y-72.58
T6
X28.Y-57.
X28.Y-122.
X122.Y-57.
X122.Y-122.
T0
M30
